<svg id="图层_1" data-name="图层 1" xmlns="http://www.w3.org/2000/svg" viewBox="0 0 444 55.7"><defs><style>.cls-1{fill:#1b1b1b;}</style></defs><title>cilogo</title><path class="cls-1" d="M84.19,38.85A12.08,12.08,0,1,1,96.28,26.76,12.1,12.1,0,0,1,84.19,38.85Zm0-16.53a4.44,4.44,0,1,0,4.44,4.44A4.45,4.45,0,0,0,84.19,22.32Z"/><path class="cls-1" d="M128.91,23.94C115,12.17,100.7,0,84.19,0S53.35,12.17,39.48,23.94c-13.34,11.31-25.93,22-39.48,22v7.64c16.35,0,30.62-12.11,44.42-23.82C57.83,18.38,70.49,7.64,84.19,7.64S110.56,18.38,124,29.76c13.8,11.71,28.07,23.82,44.42,23.82V45.94C154.84,45.94,142.25,35.25,128.91,23.94Z"/><path class="cls-1" d="M131.38,21l3.88,3.28c11-9.12,21.75-16.66,33.13-16.66V0c-14.24,0-26.9,9.18-39,19.29Z"/><path class="cls-1" d="M121.49,32.67l-4-3.4C106.41,38.4,95.66,45.94,84.19,45.94S62,38.4,50.91,29.27l-4,3.4L45,34.28C57.16,44.4,69.86,53.58,84.19,53.58s27-9.17,39.2-19.29Z"/><path class="cls-1" d="M37,21l2-1.73C26.9,9.18,14.24,0,0,0V7.64c11.38,0,22.09,7.54,33.13,16.66Z"/><path class="cls-1" d="M206.92,16a8.84,8.84,0,0,0-7.27,3.27q-2.65,3.28-2.65,9,0,6,2.54,9.13t7.37,3.1a19.33,19.33,0,0,0,4-.42q2-.41,4.06-1.06v4.6a24.6,24.6,0,0,1-8.75,1.46q-7.2,0-11.05-4.36t-3.86-12.48a20.16,20.16,0,0,1,1.87-8.95,13.36,13.36,0,0,1,5.42-5.88,16.38,16.38,0,0,1,8.32-2,20.65,20.65,0,0,1,9.28,2.11L214.32,18a29,29,0,0,0-3.51-1.38A12.67,12.67,0,0,0,206.92,16Z"/><path class="cls-1" d="M225.64,44.67h-5.27V9.78h5.27V44.67Z"/><path class="cls-1" d="M254,32.22q0,6.08-3.12,9.49t-8.68,3.41a11.88,11.88,0,0,1-6.14-1.57A10.36,10.36,0,0,1,232,39a15.34,15.34,0,0,1-1.44-6.82q0-6,3.1-9.42t8.72-3.39a10.93,10.93,0,0,1,8.52,3.46Q254,26.35,254,32.22Zm-18.05,0q0,8.59,6.35,8.59t6.28-8.59q0-8.5-6.32-8.5a5.39,5.39,0,0,0-4.81,2.2A11.17,11.17,0,0,0,236,32.22Z"/><path class="cls-1" d="M276.43,44.67l-0.74-3.25h-0.27a7.47,7.47,0,0,1-3.13,2.71,10.45,10.45,0,0,1-4.63,1q-4.51,0-6.73-2.24t-2.22-6.79V19.87H264V35.16a6.64,6.64,0,0,0,1.17,4.27,4.45,4.45,0,0,0,3.66,1.42,5.82,5.82,0,0,0,4.88-2q1.56-2,1.56-6.65V19.87h5.29v24.8h-4.15Z"/><path class="cls-1" d="M295.31,45.12a8.64,8.64,0,0,1-7.24-3.36q-2.6-3.37-2.6-9.44t2.64-9.5a8.72,8.72,0,0,1,7.3-3.4A8.55,8.55,0,0,1,302.84,23h0.27a31.58,31.58,0,0,1-.38-4.22v-9H308V44.67h-4.13L303,41.42h-0.25A8.43,8.43,0,0,1,295.31,45.12Zm1.41-4.26q3.25,0,4.73-1.83T303,33.1V32.36q0-4.69-1.52-6.66a5.66,5.66,0,0,0-4.78-2A4.84,4.84,0,0,0,292.39,26a11.55,11.55,0,0,0-1.5,6.43,11.27,11.27,0,0,0,1.46,6.29A4.92,4.92,0,0,0,296.72,40.86Z"/><path class="cls-1" d="M316.89,13.51q0-2.15,1.41-2.15a1.26,1.26,0,0,1,1.09.56,2.75,2.75,0,0,1,.39,1.59,2.82,2.82,0,0,1-.39,1.59,1.24,1.24,0,0,1-1.09.58Q316.89,15.69,316.89,13.51Zm2.53,31.15h-2.22V20.29h2.22V44.66Z"/><path class="cls-1" d="M343.21,44.66V28.85q0-3.68-1.55-5.35a6.24,6.24,0,0,0-4.8-1.67q-4.37,0-6.4,2.21t-2,7.16V44.66h-2.22V20.29h1.88l0.43,3.34h0.14q2.38-3.81,8.45-3.81,8.3,0,8.3,8.9V44.66h-2.2Z"/><path class="cls-1" d="M368,38.32a5.8,5.8,0,0,1-2.49,5q-2.49,1.76-7.06,1.76a16.84,16.84,0,0,1-7.76-1.5v-2.4A17.12,17.12,0,0,0,358.4,43a10.25,10.25,0,0,0,5.48-1.2,3.65,3.65,0,0,0,1.87-3.2,3.9,3.9,0,0,0-1.49-3.09,16.41,16.41,0,0,0-4.9-2.47,28,28,0,0,1-5.13-2.28A7.12,7.12,0,0,1,352,28.66a5.41,5.41,0,0,1-.75-2.93,5,5,0,0,1,2.3-4.33A11.17,11.17,0,0,1,360,19.82a19.24,19.24,0,0,1,7.49,1.48l-0.83,2A17.57,17.57,0,0,0,360,21.83a9.63,9.63,0,0,0-4.73,1,3,3,0,0,0-1.75,2.74,3.79,3.79,0,0,0,1.36,3,18.93,18.93,0,0,0,5.3,2.56A26.11,26.11,0,0,1,365,33.3a7,7,0,0,1,2.25,2.16A5.3,5.3,0,0,1,368,38.32Z"/><path class="cls-1" d="M373.46,13.51q0-2.15,1.41-2.15a1.26,1.26,0,0,1,1.09.56,2.75,2.75,0,0,1,.39,1.59,2.82,2.82,0,0,1-.39,1.59,1.24,1.24,0,0,1-1.09.58Q373.46,15.69,373.46,13.51ZM376,44.66h-2.22V20.29H376V44.66Z"/><path class="cls-1" d="M402.71,20.29v1.55l-5,.31a8.61,8.61,0,0,1,2,5.52,7.44,7.44,0,0,1-2.34,5.71,8.86,8.86,0,0,1-6.29,2.19,13.72,13.72,0,0,1-2.33-.13,5.79,5.79,0,0,0-2,1.64,3.31,3.31,0,0,0-.7,2,1.85,1.85,0,0,0,.89,1.7,6,6,0,0,0,3,.54h4.26a9.89,9.89,0,0,1,6.08,1.6,5.59,5.59,0,0,1,2.11,4.74,6.75,6.75,0,0,1-3.13,6q-3.13,2.1-8.91,2.1a12.27,12.27,0,0,1-7.12-1.77A5.69,5.69,0,0,1,380.63,49a5.85,5.85,0,0,1,1.56-4.17,8.07,8.07,0,0,1,4.23-2.27,4.29,4.29,0,0,1-1.76-1.33,3.17,3.17,0,0,1-.66-2q0-2.44,3.12-4.31a6.94,6.94,0,0,1-3.32-2.75,7.83,7.83,0,0,1-1.19-4.3A7.72,7.72,0,0,1,384.92,22a8.72,8.72,0,0,1,6.27-2.21,11.56,11.56,0,0,1,3.72.47h7.8ZM383,48.79q0,5,7.47,5,9.6,0,9.6-6.12a3.53,3.53,0,0,0-1.5-3.18,9.16,9.16,0,0,0-4.87-1h-4Q383,43.52,383,48.79Zm1.86-20.9a5.62,5.62,0,0,0,1.72,4.38,7.68,7.68,0,0,0,9.26,0,5.9,5.9,0,0,0,1.63-4.49,6.09,6.09,0,0,0-1.67-4.68,6.59,6.59,0,0,0-4.68-1.56,6.19,6.19,0,0,0-4.58,1.67A6.29,6.29,0,0,0,384.84,27.89Z"/><path class="cls-1" d="M424.26,44.66V28.85q0-3.68-1.55-5.35a6.24,6.24,0,0,0-4.8-1.67q-4.37,0-6.4,2.21t-2,7.16V44.66h-2.22V9.77h2.22v11.1L409.36,24h0.16A8.19,8.19,0,0,1,413,20.8a12.1,12.1,0,0,1,5.18-1q8.3,0,8.3,8.9V44.66h-2.2Z"/><path class="cls-1" d="M440.32,43.14a16.69,16.69,0,0,0,3.68-.36v1.79a11.78,11.78,0,0,1-3.72.54,6.06,6.06,0,0,1-4.77-1.73Q434,41.66,434,38V22.21h-3.61v-1.3l3.61-1,1.12-5.52h1.14v5.9h7.15v1.93h-7.15V37.64a7,7,0,0,0,1,4.15A3.58,3.58,0,0,0,440.32,43.14Z"/></svg>